<?xml version="1.0" encoding="UTF-8"?>
<svg width="100%" height="100%" viewBox="0 0 128 128" version="1.1" xmlns="http://www.w3.org/2000/svg" xmlns:xlink="http://www.w3.org/1999/xlink" xml:space="preserve" xmlns:serif="http://www.serif.com/" style="fill-rule:evenodd;clip-rule:evenodd;stroke-linejoin:round;stroke-miterlimit:2;">
    
    <defs>
        <filter id="glow" x="-50%" y="-50%" width="200%" height="200%">
            <feGaussianBlur stdDeviation="3.5" result="coloredBlur"/>
            
            <feComponentTransfer in="coloredBlur">
                <feFuncA type="linear" slope="1.5"/>
            </feComponentTransfer>
            
            <feMerge>
                <feMergeNode in="SourceGraphic"/>
                <feMergeNode in="coloredBlur"/>
            </feMerge>
        </filter>
    </defs>

    <g filter="url(#glow)" stroke="#00FFC8" stroke-width="6" fill="none">
        
        <circle cx="64" cy="64" r="12" fill="#00FFC8" stroke="none"/>
        
        <g opacity="0.8">
            <path d="M56.5,56.5 C40,40 20,45 15,25" />
            <circle cx="15" cy="25" r="5" fill="#00FFC8" stroke="none"/>
            
            <path d="M71.5,56.5 C88,40 108,45 113,25" />
            <circle cx="113" cy="25" r="5" fill="#00FFC8" stroke="none"/>
            
            <path d="M71.5,71.5 C90,90 95,70 110,95" />
            <path d="M110,95 C115,103 105,115 115,120" stroke-width="4" opacity="0.5"/>
            <circle cx="110" cy="95" r="5" fill="#00FFC8" stroke="none"/>
            
            <path d="M56.5,71.5 C45,85 30,110 20,105" />
            <circle cx="20" cy="105" r="5" fill="#00FFC8" stroke="none"/>
            
            <path d="M76,64 L105,64" stroke-width="4" stroke-dasharray="8 6"/>
            <circle cx="105" cy="64" r="3" fill="#00FFC8" stroke="none" opacity="0.6"/>
        </g>
    </g>
</svg>
